<mxfile host="app.diagrams.net" modified="2023-08-14T18:31:23.815Z" agent="Mozilla/5.0 (Macintosh; Intel Mac OS X 10_15_7) AppleWebKit/537.36 (KHTML, like Gecko) Chrome/115.0.0.0 Safari/537.36" etag="Sb_J-tcW4ziIiwyc2Gge" version="21.6.8" type="device">
  <diagram name="Page-1" id="3sxhr-Dp2gEjyF0MoyhH">
    <mxGraphModel dx="1186" dy="1904" grid="1" gridSize="10" guides="1" tooltips="1" connect="1" arrows="1" fold="1" page="1" pageScale="1" pageWidth="827" pageHeight="1169" math="0" shadow="0">
      <root>
        <mxCell id="0" />
        <mxCell id="1" parent="0" />
        <mxCell id="CW_gJ5pnzmwouRRYtdM0-1" value="Third Party" style="whiteSpace=wrap;strokeWidth=2;verticalAlign=top;" vertex="1" parent="1">
          <mxGeometry x="810" y="231" width="166" height="187" as="geometry" />
        </mxCell>
        <mxCell id="CW_gJ5pnzmwouRRYtdM0-2" value="Google Sheets API" style="whiteSpace=wrap;strokeWidth=2;" vertex="1" parent="1">
          <mxGeometry x="835" y="266" width="116" height="34" as="geometry" />
        </mxCell>
        <mxCell id="CW_gJ5pnzmwouRRYtdM0-3" value="Twilio API" style="whiteSpace=wrap;strokeWidth=2;" vertex="1" parent="1">
          <mxGeometry x="851" y="350" width="83" height="34" as="geometry" />
        </mxCell>
        <mxCell id="CW_gJ5pnzmwouRRYtdM0-4" value="Organisation" style="whiteSpace=wrap;strokeWidth=2;verticalAlign=top;" vertex="1" parent="1">
          <mxGeometry x="20" y="215" width="110" height="104" as="geometry" />
        </mxCell>
        <mxCell id="CW_gJ5pnzmwouRRYtdM0-5" value="Admin" style="whiteSpace=wrap;strokeWidth=2;" vertex="1" parent="1">
          <mxGeometry x="45" y="250" width="60" height="34" as="geometry" />
        </mxCell>
        <mxCell id="CW_gJ5pnzmwouRRYtdM0-6" value="World" style="whiteSpace=wrap;strokeWidth=2;verticalAlign=top;" vertex="1" parent="1">
          <mxGeometry x="20" y="92" width="110" height="104" as="geometry" />
        </mxCell>
        <mxCell id="CW_gJ5pnzmwouRRYtdM0-7" value="Client" style="whiteSpace=wrap;strokeWidth=2;" vertex="1" parent="1">
          <mxGeometry x="46" y="127" width="58" height="34" as="geometry" />
        </mxCell>
        <mxCell id="CW_gJ5pnzmwouRRYtdM0-8" value="Backend" style="whiteSpace=wrap;strokeWidth=2;verticalAlign=top;" vertex="1" parent="1">
          <mxGeometry x="180" y="20" width="580" height="408" as="geometry" />
        </mxCell>
        <mxCell id="CW_gJ5pnzmwouRRYtdM0-9" value="Export to Google Sheets Service" style="whiteSpace=wrap;strokeWidth=2;" vertex="1" parent="1">
          <mxGeometry x="360" y="143" width="187" height="34" as="geometry" />
        </mxCell>
        <mxCell id="CW_gJ5pnzmwouRRYtdM0-10" value="API Gateway Service" style="whiteSpace=wrap;strokeWidth=2;" vertex="1" parent="1">
          <mxGeometry x="205" y="127" width="105" height="34" as="geometry" />
        </mxCell>
        <mxCell id="CW_gJ5pnzmwouRRYtdM0-11" value="Form Handler Service" style="whiteSpace=wrap;strokeWidth=2;" vertex="1" parent="1">
          <mxGeometry x="387.5" y="324" width="133" height="34" as="geometry" />
        </mxCell>
        <mxCell id="CW_gJ5pnzmwouRRYtdM0-12" value="Form Validation Service" style="whiteSpace=wrap;strokeWidth=2;" vertex="1" parent="1">
          <mxGeometry x="383.5" y="230" width="140" height="34" as="geometry" />
        </mxCell>
        <mxCell id="CW_gJ5pnzmwouRRYtdM0-13" value="Slang Search Service" style="whiteSpace=wrap;strokeWidth=2;" vertex="1" parent="1">
          <mxGeometry x="373" y="55" width="162" height="34" as="geometry" />
        </mxCell>
        <mxCell id="CW_gJ5pnzmwouRRYtdM0-14" value="Database" style="whiteSpace=wrap;strokeWidth=2;" vertex="1" parent="1">
          <mxGeometry x="620" y="120" width="110" height="40" as="geometry" />
        </mxCell>
        <mxCell id="CW_gJ5pnzmwouRRYtdM0-15" value="SMS Alert Service" style="whiteSpace=wrap;strokeWidth=2;" vertex="1" parent="1">
          <mxGeometry x="597" y="350" width="138" height="34" as="geometry" />
        </mxCell>
        <mxCell id="CW_gJ5pnzmwouRRYtdM0-16" value="Logging" style="whiteSpace=wrap;strokeWidth=2;" vertex="1" parent="1">
          <mxGeometry x="230" y="316" width="69" height="34" as="geometry" />
        </mxCell>
        <mxCell id="CW_gJ5pnzmwouRRYtdM0-17" value="" style="curved=1;startArrow=none;endArrow=block;exitX=0.9965651939655172;exitY=0.4852941176470588;entryX=-0.0005952380952380953;entryY=0.4852941176470588;rounded=0;strokeWidth=2;" edge="1" parent="1" source="CW_gJ5pnzmwouRRYtdM0-7" target="CW_gJ5pnzmwouRRYtdM0-10">
          <mxGeometry relative="1" as="geometry">
            <Array as="points" />
          </mxGeometry>
        </mxCell>
        <mxCell id="CW_gJ5pnzmwouRRYtdM0-18" value="" style="curved=1;startArrow=none;endArrow=block;exitX=0.9989583333333333;exitY=0.5;entryX=-0.0005661231884057971;entryY=0.5;rounded=0;strokeWidth=2;" edge="1" parent="1" source="CW_gJ5pnzmwouRRYtdM0-5" target="CW_gJ5pnzmwouRRYtdM0-16">
          <mxGeometry relative="1" as="geometry">
            <Array as="points" />
          </mxGeometry>
        </mxCell>
        <mxCell id="CW_gJ5pnzmwouRRYtdM0-19" value="" style="curved=1;startArrow=none;endArrow=block;exitX=0.5869860112797419;exitY=0.9742647058823529;entryX=-0.0006734913793103449;entryY=0.4963235294117647;rounded=0;strokeWidth=2;" edge="1" parent="1" source="CW_gJ5pnzmwouRRYtdM0-9" target="CW_gJ5pnzmwouRRYtdM0-2">
          <mxGeometry relative="1" as="geometry">
            <Array as="points">
              <mxPoint x="572" y="283" />
            </Array>
          </mxGeometry>
        </mxCell>
        <mxCell id="CW_gJ5pnzmwouRRYtdM0-20" value="" style="curved=1;startArrow=none;endArrow=block;exitX=0.9994338768115942;exitY=0.48161764705882354;entryX=0.0040945030120481925;entryY=0.48161764705882354;rounded=0;strokeWidth=2;" edge="1" parent="1" source="CW_gJ5pnzmwouRRYtdM0-15" target="CW_gJ5pnzmwouRRYtdM0-3">
          <mxGeometry relative="1" as="geometry">
            <Array as="points" />
          </mxGeometry>
        </mxCell>
        <mxCell id="CW_gJ5pnzmwouRRYtdM0-21" value="" style="curved=1;startArrow=none;endArrow=block;exitX=0.9968894675925926;exitY=0.49264705882352944;entryX=0.2872277865292915;entryY=-0.007352941176470588;rounded=0;strokeWidth=2;" edge="1" parent="1" source="CW_gJ5pnzmwouRRYtdM0-13" target="CW_gJ5pnzmwouRRYtdM0-14">
          <mxGeometry relative="1" as="geometry">
            <Array as="points">
              <mxPoint x="572" y="72" />
            </Array>
          </mxGeometry>
        </mxCell>
        <mxCell id="CW_gJ5pnzmwouRRYtdM0-22" value="" style="curved=1;startArrow=none;endArrow=block;exitX=1.0006696428571429;exitY=0.08664969235919152;entryX=0.20481868606644424;entryY=-0.011029411764705883;rounded=0;strokeWidth=2;" edge="1" parent="1" source="CW_gJ5pnzmwouRRYtdM0-10" target="CW_gJ5pnzmwouRRYtdM0-9">
          <mxGeometry relative="1" as="geometry">
            <Array as="points">
              <mxPoint x="335" y="124" />
            </Array>
          </mxGeometry>
        </mxCell>
        <mxCell id="CW_gJ5pnzmwouRRYtdM0-23" value="" style="curved=1;startArrow=none;endArrow=block;exitX=0.5749158021756356;exitY=0.9779411764705882;entryX=0.0038025442477876105;entryY=0.04243221461947943;rounded=0;strokeWidth=2;" edge="1" parent="1" source="CW_gJ5pnzmwouRRYtdM0-10" target="CW_gJ5pnzmwouRRYtdM0-11">
          <mxGeometry relative="1" as="geometry">
            <Array as="points">
              <mxPoint x="335" y="309" />
            </Array>
          </mxGeometry>
        </mxCell>
        <mxCell id="CW_gJ5pnzmwouRRYtdM0-24" value="" style="curved=1;startArrow=none;endArrow=block;exitX=0.6830122650955023;exitY=0.9779411764705882;entryX=0.06485229917519586;entryY=0.007352941176470588;rounded=0;strokeWidth=2;" edge="1" parent="1" source="CW_gJ5pnzmwouRRYtdM0-10" target="CW_gJ5pnzmwouRRYtdM0-12">
          <mxGeometry relative="1" as="geometry">
            <Array as="points">
              <mxPoint x="335" y="211" />
            </Array>
          </mxGeometry>
        </mxCell>
        <mxCell id="CW_gJ5pnzmwouRRYtdM0-25" value="" style="curved=1;startArrow=none;endArrow=block;exitX=0.6412490553461041;exitY=-0.007352941176470588;entryX=-0.0008439429012345679;entryY=0.17450921466597435;rounded=0;startFill=0;endFill=1;strokeWidth=2;" edge="1" parent="1" source="CW_gJ5pnzmwouRRYtdM0-10" target="CW_gJ5pnzmwouRRYtdM0-13">
          <mxGeometry relative="1" as="geometry">
            <Array as="points">
              <mxPoint x="335" y="56" />
            </Array>
          </mxGeometry>
        </mxCell>
        <mxCell id="CW_gJ5pnzmwouRRYtdM0-26" value="" style="curved=1;startArrow=none;endArrow=block;exitX=0.9115542008964322;exitY=-0.011029411764705883;entryX=-0.0017578125;entryY=0.10677547031636937;rounded=0;strokeWidth=2;" edge="1" parent="1" source="CW_gJ5pnzmwouRRYtdM0-9" target="CW_gJ5pnzmwouRRYtdM0-14">
          <mxGeometry relative="1" as="geometry">
            <Array as="points">
              <mxPoint x="572" y="134" />
            </Array>
          </mxGeometry>
        </mxCell>
        <mxCell id="CW_gJ5pnzmwouRRYtdM0-27" value="" style="startArrow=none;endArrow=block;exitX=0.6079833660784811;exitY=-0.007352941176470588;entryX=-0.0017578125;entryY=0.6335472545182458;curved=1;strokeWidth=2;" edge="1" parent="1" source="CW_gJ5pnzmwouRRYtdM0-11" target="CW_gJ5pnzmwouRRYtdM0-14">
          <mxGeometry relative="1" as="geometry">
            <Array as="points">
              <mxPoint x="600" y="220" />
            </Array>
          </mxGeometry>
        </mxCell>
        <mxCell id="CW_gJ5pnzmwouRRYtdM0-28" value="" style="curved=1;startArrow=none;endArrow=block;exitX=0.99627685546875;exitY=0.5;entryX=0.266075125140344;entryY=0.9779411764705882;rounded=0;strokeWidth=2;" edge="1" parent="1" source="CW_gJ5pnzmwouRRYtdM0-12" target="CW_gJ5pnzmwouRRYtdM0-14">
          <mxGeometry relative="1" as="geometry">
            <Array as="points">
              <mxPoint x="572" y="247" />
            </Array>
          </mxGeometry>
        </mxCell>
        <mxCell id="CW_gJ5pnzmwouRRYtdM0-29" value="" style="curved=1;startArrow=none;endArrow=block;exitX=0.9993777654867256;exitY=0.4852941176470588;entryX=0.06068170530525786;entryY=-0.011029411764705883;rounded=0;strokeWidth=2;" edge="1" parent="1" source="CW_gJ5pnzmwouRRYtdM0-11" target="CW_gJ5pnzmwouRRYtdM0-15">
          <mxGeometry relative="1" as="geometry">
            <Array as="points">
              <mxPoint x="572" y="341" />
            </Array>
          </mxGeometry>
        </mxCell>
        <mxCell id="CW_gJ5pnzmwouRRYtdM0-30" value="" style="curved=1;startArrow=block;endArrow=none;exitX=0.7482217016749039;exitY=0.007352941176470588;entryX=0.16634351709545653;entryY=0.9742647058823529;rounded=0;startFill=1;endFill=0;strokeWidth=2;" edge="1" parent="1" source="CW_gJ5pnzmwouRRYtdM0-16" target="CW_gJ5pnzmwouRRYtdM0-9">
          <mxGeometry relative="1" as="geometry">
            <Array as="points">
              <mxPoint x="335" y="191" />
            </Array>
          </mxGeometry>
        </mxCell>
        <mxCell id="CW_gJ5pnzmwouRRYtdM0-31" value="" style="curved=1;startArrow=block;endArrow=none;exitX=0.7107366252407012;exitY=0.9926470588235294;entryX=0.0038025442477876105;entryY=0.7067250691608485;rounded=0;startFill=1;endFill=0;strokeWidth=2;" edge="1" parent="1" source="CW_gJ5pnzmwouRRYtdM0-16" target="CW_gJ5pnzmwouRRYtdM0-11">
          <mxGeometry relative="1" as="geometry">
            <Array as="points">
              <mxPoint x="335" y="356" />
            </Array>
          </mxGeometry>
        </mxCell>
        <mxCell id="CW_gJ5pnzmwouRRYtdM0-32" value="" style="curved=1;startArrow=block;endArrow=none;exitX=1.000679347826087;exitY=0.5;entryX=-0.00128173828125;entryY=0.8166288251567257;rounded=0;startFill=1;endFill=0;strokeWidth=2;" edge="1" parent="1" source="CW_gJ5pnzmwouRRYtdM0-16" target="CW_gJ5pnzmwouRRYtdM0-12">
          <mxGeometry relative="1" as="geometry">
            <Array as="points">
              <mxPoint x="335" y="267" />
            </Array>
          </mxGeometry>
        </mxCell>
        <mxCell id="CW_gJ5pnzmwouRRYtdM0-33" value="" style="curved=1;startArrow=block;endArrow=none;exitX=0.6503921504816453;exitY=0.9926470588235294;entryX=0.06068170530525786;entryY=0.9742647058823529;rounded=0;startFill=1;endFill=0;strokeWidth=2;" edge="1" parent="1" source="CW_gJ5pnzmwouRRYtdM0-16" target="CW_gJ5pnzmwouRRYtdM0-15">
          <mxGeometry relative="1" as="geometry">
            <Array as="points">
              <mxPoint x="335" y="392" />
              <mxPoint x="572" y="392" />
            </Array>
          </mxGeometry>
        </mxCell>
        <mxCell id="CW_gJ5pnzmwouRRYtdM0-34" value="" style="curved=1;startArrow=block;endArrow=none;exitX=0.6152219099022738;exitY=0.007352941176470588;entryX=0.1117668993632739;entryY=0.9852941176470589;rounded=0;startFill=1;endFill=0;strokeWidth=2;" edge="1" parent="1" source="CW_gJ5pnzmwouRRYtdM0-16" target="CW_gJ5pnzmwouRRYtdM0-13">
          <mxGeometry relative="1" as="geometry">
            <Array as="points">
              <mxPoint x="335" y="104" />
            </Array>
          </mxGeometry>
        </mxCell>
        <mxCell id="CW_gJ5pnzmwouRRYtdM0-36" value="&lt;span style=&quot;color: rgb(0, 0, 0); font-family: Helvetica; font-style: normal; font-variant-ligatures: normal; font-variant-caps: normal; font-weight: 400; letter-spacing: normal; orphans: 2; text-indent: 0px; text-transform: none; widows: 2; word-spacing: 0px; -webkit-text-stroke-width: 0px; background-color: rgb(251, 251, 251); text-decoration-thickness: initial; text-decoration-style: initial; text-decoration-color: initial; float: none; display: inline !important;&quot;&gt;&lt;font style=&quot;font-size: 18px;&quot;&gt;Arrows Represent Direction of Flow of Requests&lt;/font&gt;&lt;/span&gt;" style="text;whiteSpace=wrap;html=1;align=center;" vertex="1" parent="1">
          <mxGeometry x="265" y="-50" width="410" height="30" as="geometry" />
        </mxCell>
      </root>
    </mxGraphModel>
  </diagram>
</mxfile>
